<svg xmlns="http://www.w3.org/2000/svg" viewBox="0 0 191.56 163.39"><defs><style>.cls-1{fill:#211915;}.cls-2{fill:#67666a;}.cls-3{fill:#8cab33;}</style></defs><title>Ativo 1</title><g id="Camada_2" data-name="Camada 2"><g id="Camada_1-2" data-name="Camada 1"><path class="cls-1" d="M182.61,136.9a3.56,3.56,0,0,1,.49-2.28,3,3,0,0,1,2.12-.52,3.66,3.66,0,0,1,2.18.43,2.52,2.52,0,0,1,.5,1.88v.48Zm4.8,5a4,4,0,0,1-2.09.35,3,3,0,0,1-2.21-.6,3.67,3.67,0,0,1-.55-2.39c0-.08,0-.26,0-.54h8.23v-.89q0-3.49-1.11-4.68t-4.36-1.19q-3.4,0-4.57,1.22t-1.17,4.77q0,4,1.12,5.23t4.75,1.23q5.34,0,5.34-3.56v-.47h-2.93c0,.77-.16,1.28-.48,1.51m-16-9.78v-2.72h-2.91v2.72H167v2.21h1.58v6.53q0,3.57,3.89,3.57t4.15-2.79c0-.4.05-.88.05-1.44v-.61h-2.48V140q0,2-1.41,2c-.86,0-1.29-.56-1.29-1.69v-6.11h4.68v-2.21Zm-18.81,12.16h2.91V137q0-2.79,2.94-2.79,1.94,0,2.14,1.36l.06.85v7.79h2.91V136q0-4-4.31-4-3,0-3.82,2.2h-.06l.12-2h-2.89Zm-12.46-7.34a3.56,3.56,0,0,1,.49-2.28,3,3,0,0,1,2.12-.52,3.67,3.67,0,0,1,2.18.43,2.52,2.52,0,0,1,.5,1.88v.48Zm4.8,5a4,4,0,0,1-2.09.35,3,3,0,0,1-2.21-.6,3.67,3.67,0,0,1-.55-2.39c0-.08,0-.26,0-.54h8.23v-.89q0-3.49-1.11-4.68t-4.36-1.19q-3.4,0-4.57,1.22t-1.17,4.77q0,4,1.12,5.23t4.74,1.23q5.35,0,5.34-3.56v-.47h-2.93c0,.77-.16,1.28-.48,1.51m-30.46,2.39h2.91v-7q0-3,2.68-3a2.22,2.22,0,0,1,1.7.48,3.37,3.37,0,0,1,.4,2v7.53h2.91v-7.11q0-2.89,2.66-2.89,2.13,0,2.13,2.58v7.42h2.91v-8.05q0-4.25-4.22-4.25-2.9,0-3.75,2.25h-.05q-.37-2.25-3.66-2.25-2.82,0-3.71,2h-.06l.08-1.87h-2.91Zm-12.46-7.34a3.58,3.58,0,0,1,.49-2.28,3,3,0,0,1,2.12-.52,3.67,3.67,0,0,1,2.18.43,2.52,2.52,0,0,1,.5,1.88v.48Zm4.8,5a4,4,0,0,1-2.09.35,3,3,0,0,1-2.21-.6,3.67,3.67,0,0,1-.55-2.39c0-.08,0-.26,0-.54h8.23v-.89q0-3.49-1.11-4.68t-4.36-1.19q-3.4,0-4.57,1.22T99,137.92q0,4,1.12,5.23t4.74,1.23q5.35,0,5.34-3.56v-.47h-2.93c0,.77-.16,1.28-.48,1.51M95,131.27q0-2.7-1.36-3.63t-5.28-.93q-4.13,0-5.51,1t-1.38,4.05q0,3,1.14,3.88t5.27,1.14l1.82.12a3.6,3.6,0,0,1,2,.5,2.25,2.25,0,0,1,.46,1.67q0,1.71-.61,2.18a5.36,5.36,0,0,1-2.82.47,8.46,8.46,0,0,1-3.47-.41q-.64-.41-.64-2.23v-.37H81.45v.64q0,3,1.34,4t5.44,1q4.55,0,5.89-1t1.33-4.47q0-2.81-1.14-3.7t-5-1.11a13.35,13.35,0,0,1-3.87-.51q-.58-.33-.59-2a2,2,0,0,1,.72-1.82,6.94,6.94,0,0,1,3.06-.43,5.22,5.22,0,0,1,2.52.38c.36.25.57.86.65,1.84,0,.08,0,.2,0,.36H95Z"/><path class="cls-2" d="M188.89,110.19a2,2,0,0,1,.66,1.76q0,2.08-3.42,2.08a4,4,0,0,1-2.25-.43,2.19,2.19,0,0,1-.55-1.77,2,2,0,0,1,.56-1.69,4.82,4.82,0,0,1,2.42-.39,5,5,0,0,1,2.58.45m-5.19-3.26q0-1.67,3-1.67a3.22,3.22,0,0,1,2.27.56,3.89,3.89,0,0,1,.52,2.45v1.34h0q-.58-1.14-3.49-1.14a5.53,5.53,0,0,0-3.38.76,3.4,3.4,0,0,0-.94,2.76q0,3.36,4.18,3.36,2.83,0,3.75-1.36h0l-.13,1.19h1.62v-7.28q0-2.29-1-3.1t-3.73-.81a6.05,6.05,0,0,0-3.41.66,3.11,3.11,0,0,0-.87,2.59h1.61c0-.16,0-.27,0-.32m-22.85,8.27h1.62v-6.27q0-3.59,3.3-3.59,2.43,0,2.44,2.13l0,.51v7.22h1.62v-6.38a4.1,4.1,0,0,1,.68-2.75,3.57,3.57,0,0,1,2.6-.72,2,2,0,0,1,2.48,2.49v7.36h1.62V108q0-4-3.9-4a4,4,0,0,0-3.8,1.86h0q-.6-1.86-3.41-1.86a3.64,3.64,0,0,0-3.6,1.86l0,0,0-1.66h-1.62Zm-6.84-5a2,2,0,0,1,.66,1.76q0,2.08-3.42,2.08a4,4,0,0,1-2.25-.43,2.19,2.19,0,0,1-.56-1.77,2,2,0,0,1,.56-1.69,4.82,4.82,0,0,1,2.42-.39,5,5,0,0,1,2.58.45m-5.19-3.26q0-1.67,3-1.67a3.22,3.22,0,0,1,2.27.56,3.89,3.89,0,0,1,.52,2.45v1.34h0q-.58-1.14-3.49-1.14a5.53,5.53,0,0,0-3.38.76,3.4,3.4,0,0,0-.94,2.76q0,3.36,4.18,3.36,2.83,0,3.75-1.36h0l-.13,1.19h1.62v-7.28q0-2.29-1-3.1T151.5,104a6.06,6.06,0,0,0-3.41.66,3.12,3.12,0,0,0-.87,2.59h1.6c0-.16,0-.27,0-.32m-12.59,8.27h1.62v-6.62q0-3.34,2.7-3.34,1.85,0,1.85,1.7,0,.15,0,.59l0,.28h1.59v-.76q0-3.14-3-3.14a3.42,3.42,0,0,0-3.16,1.56l0,0,.16-1.27h-1.62Zm-6.92-9.07a5.87,5.87,0,0,1,.61,3.28,7.46,7.46,0,0,1-.61,3.72,2.92,2.92,0,0,1-2.54.89q-1.9,0-2.47-.81a7.15,7.15,0,0,1-.57-3.55,7,7,0,0,1,.57-3.52q.57-.8,2.47-.8a3.14,3.14,0,0,1,2.54.79m.66-2,.08,1.49h0q-.83-1.66-3.54-1.66-2.55,0-3.49,1.22t-.94,4.53q0,3.2.92,4.4t3.37,1.21q3,0,3.6-1.54h0v2.21a2.84,2.84,0,0,1-.64,2.17,4,4,0,0,1-2.48.56,4.06,4.06,0,0,1-2.3-.43,2.37,2.37,0,0,1-.53-1.85h-1.56a3.62,3.62,0,0,0,.9,2.85,5.4,5.4,0,0,0,3.37.76q2.77,0,3.81-.9a4.24,4.24,0,0,0,1-3.3V104.17ZM116,106q.51.7.51,3.64t-.51,3.64q-.51.7-2.67.7t-2.66-.7q-.51-.7-.51-3.64t.51-3.64q.51-.7,2.66-.7t2.67.7m-6.63-1q-.91,1.06-.91,4.62t.91,4.62q.91,1.06,4,1.06t4-1.06q.91-1.06.91-4.62t-.91-4.62q-.91-1.06-4-1.06t-4,1.06M97.82,115.2h1.62v-6.62q0-3.34,2.7-3.34,1.85,0,1.85,1.7,0,.15,0,.59l0,.28h1.59v-.76q0-3.14-3-3.14a3.42,3.42,0,0,0-3.16,1.56l0,0,.16-1.27H97.82Zm-13.9-14.26h5.46q1.88,0,2.38.61a5.22,5.22,0,0,1,.5,2.89q0,2-.75,2.49a6.69,6.69,0,0,1-3.39.54H83.91Zm0,14.26V109h5.24q2.78,0,3.79-1t1-3.68q0-2.82-1-3.84t-3.64-1H82.14V115.2Z"/><path class="cls-3" d="M95.78,120.79c-5.69,0-11.26,0-16.68,0,.64-2.65.21-7.19-.28-12.26a69.29,69.29,0,0,1-.54-10.92c.37-4.19,3.35-9.94,6-15,1.38-2.67,2.69-5.2,3.52-7.3a15.47,15.47,0,0,0,.92-3.81A17.42,17.42,0,1,0,105,41.24,17.41,17.41,0,0,0,81.74,15.53a17.42,17.42,0,0,0-34.33-1.86,17.42,17.42,0,0,0-23,25A17.42,17.42,0,1,0,45.66,62.82l0,.16c2.41,13.79,5,20.1,6.67,24.27,1.14,2.82,1.9,4.69,2,7.3s-1,7.11-2.12,11.74c-1.34,5.52-2.72,11.21-2.3,14.77C20.16,121.43,0,122.15,0,123c0,1.21,42.88,2.19,95.78,2.19s95.78-1,95.78-2.19-42.88-2.19-95.78-2.19m-20-54.17c0-.17,0-.36,0-.55s0-.56,0-.67a15.72,15.72,0,0,1,.1-1.58c0-.33.08-.66.12-.94l.07-.35c0-.18.07-.38.09-.46.12-.53.26-1,.41-1.56.41-1.46.56-2.2.72-2.91s.35-1.65.95-3.64a53.45,53.45,0,0,0,2-11.68A17.4,17.4,0,0,0,86.39,46a17.31,17.31,0,0,0-3.86,16.5A36.18,36.18,0,0,0,81.35,66c-.88,3-1.46,4.65-3.24,4.95l-.43,0-.17,0-.1-.05c-.15-.15-.3-.3-.43-.46s-.19-.33-.27-.5-.26-.53-.38-.79-.09-.33-.15-.51S76,68,76,67.93a11.67,11.67,0,0,1-.23-1.31m-.42-32.26c-.61,2.19-1.15,4.22-1.65,6.06-.73,2.7-1.37,5.06-1.92,6.94a79.46,79.46,0,0,0-.47-8.5c-.18-1.82-.39-3.52-.65-5.17a17.31,17.31,0,0,0,4.1-2.25,17,17,0,0,0,.58,2.93M63.24,39.16c.12,9.14-.79,16.7-1.72,17.93a39.08,39.08,0,0,1-1.2-6.54,52.82,52.82,0,0,0-1.39-7.74c-.14-.42-.32-1.08-.54-1.86a44.21,44.21,0,0,0-2.75-8c0-.15.08-.3.12-.45a17.3,17.3,0,0,0,7.37,2.25c.06,1.51.1,3,.11,4.36M51,41.14l.08.39c.24,1.19.44,2.18.53,2.75.73,4.57,1.21,8.39,1.49,12,0,.44.07.87.11,1.31-.69-.74-1.51-3.64-2.12-5.82a43.09,43.09,0,0,0-3-8.37A17.5,17.5,0,0,0,51,41.14m26.61,79.69c-9.32,0-18.15.11-26.3.21-.46-3.23.91-8.9,2.25-14.41,1.15-4.73,2.23-9.19,2.17-12.11s-.87-4.83-2.07-7.8c-1.67-4.12-4.2-10.34-6.59-24-.15-.83-.27-1.67-.4-2.52a17.38,17.38,0,0,0-1.48-13.55c-.06-.55-.12-1.1-.18-1.65a17.69,17.69,0,0,0,1.86-.84,42.55,42.55,0,0,1,2.83,8c1.15,4.1,1.87,6.44,3.22,6.93a1.54,1.54,0,0,0,1.45-.22l.35-.26,0-.42q-.09-1-.17-2c-.29-3.69-.77-7.55-1.51-12.15-.09-.58-.3-1.59-.54-2.81l-.28-1.42A17.47,17.47,0,0,0,55,35c.77,1.93,1.53,4.61,2,6.32.23.81.42,1.48.56,1.91a52.6,52.6,0,0,1,1.34,7.49C59.65,56.25,60,58.2,61,58.56a1.26,1.26,0,0,0,1.17-.18c2.63-1.91,2.46-18.53,2.45-19.24,0-1.34-.06-2.8-.11-4.29a17.33,17.33,0,0,0,4.73-.7c.24,1.54.43,3.14.6,4.84a64.79,64.79,0,0,1,.22,13.12l-.28,3.11,1.61-2.68c.83-1.39,1.89-5.29,3.64-11.76l1.12-4.12a17.42,17.42,0,0,0,2.67,4.2A52,52,0,0,1,76.8,53.55c-.61,2-.79,2.87-1,3.75-.15.7-.3,1.41-.7,2.83-.15.54-.3,1.08-.42,1.62,0,.09-.06.31-.1.52l-.07.36c0,.35-.1.7-.14,1-.07.68-.1,1.21-.11,1.71,0,.13,0,.46,0,.76s0,.44,0,.51h.06s0,0,0,0h-.07a13.21,13.21,0,0,0,.28,1.56c0,.13.13.44.22.72s.12.37.14.45h0s0,0,0,.07l0,.06-.05,0c.14.31.28.62.44.93s.23.43.36.64l.07.09c.18.2.36.4.57.61l.15.12.3.17.47.16.19,0,.44,0h.11l.22,0c2.76-.45,3.56-3.12,4.4-6,.17-.58.35-1.18.55-1.79a17.47,17.47,0,0,0,4.09,5.8,15.4,15.4,0,0,1-.92,4.41c-.81,2-2.09,4.53-3.46,7.17C80.3,87.17,77.26,93,76.86,97.52a69.92,69.92,0,0,0,.54,11.18c.43,4.48,1,9.89.24,12.13"/><path class="cls-2" d="M188.6,160.37h1V150.7h-1Zm-3.52-3.08a1.22,1.22,0,0,1,.41,1.08q0,1.27-2.1,1.28a2.44,2.44,0,0,1-1.38-.27,1.35,1.35,0,0,1-.34-1.09q0-.8.34-1a3,3,0,0,1,1.49-.24,3.08,3.08,0,0,1,1.58.28m-3.19-2c0-.69.61-1,1.83-1a2,2,0,0,1,1.4.34,2.39,2.39,0,0,1,.32,1.51v.82h0q-.36-.7-2.14-.7a3.39,3.39,0,0,0-2.08.47,2.09,2.09,0,0,0-.58,1.69q0,2.06,2.57,2.06a2.62,2.62,0,0,0,2.3-.84h0l-.08.73h1V155.9a2.42,2.42,0,0,0-.59-1.91,5.54,5.54,0,0,0-4.39-.09,1.91,1.91,0,0,0-.53,1.59h1c0-.1,0-.17,0-.2M173,160.37h1V156.3q0-2,2.09-2a2,2,0,0,1,1.28.3,1.58,1.58,0,0,1,.33,1.17v4.58h1V156a2.77,2.77,0,0,0-.52-2,2.82,2.82,0,0,0-2-.51q-1.8,0-2.25,1l0,0,0-.92h-1Zm-3.24-5.62a8.09,8.09,0,0,1,0,4.47q-.32.43-1.64.43t-1.63-.43a8.07,8.07,0,0,1,0-4.47c.21-.29.75-.43,1.63-.43s1.43.14,1.64.43m-4.07-.6a7.45,7.45,0,0,0,0,5.67,4.87,4.87,0,0,0,4.87,0,7.46,7.46,0,0,0,0-5.67,4.86,4.86,0,0,0-4.87,0m-3.43,6.22h1V153.6h-1Zm0-8.56h1V150.7h-1Zm-3,7.54a2.23,2.23,0,0,1-1.44.3c-.89,0-1.46-.15-1.7-.46a4,4,0,0,1-.36-2.15,4.89,4.89,0,0,1,.32-2.23c.21-.33.69-.5,1.44-.5a3.09,3.09,0,0,1,1.55.26,1.19,1.19,0,0,1,.39,1.05v.18h1a2.25,2.25,0,0,0-.6-1.83,3.75,3.75,0,0,0-2.25-.49,2.88,2.88,0,0,0-2.28.72,4.46,4.46,0,0,0-.6,2.73,4.67,4.67,0,0,0,.59,2.84,3.17,3.17,0,0,0,2.42.69q2.85,0,2.85-2.17v-.37h-1a2.17,2.17,0,0,1-.3,1.42m-7.59-4.6a8.11,8.11,0,0,1,0,4.47c-.21.29-.76.43-1.64.43s-1.42-.14-1.63-.43a8.07,8.07,0,0,1,0-4.47c.21-.29.75-.43,1.63-.43s1.43.14,1.64.43m-4.07-.6a7.44,7.44,0,0,0,0,5.67,4.87,4.87,0,0,0,4.87,0,7.46,7.46,0,0,0,0-5.67,4.86,4.86,0,0,0-4.87,0m-12.69,6.22h1v-3.85q0-2.21,2-2.21,1.5,0,1.5,1.31v4.74h1v-3.92a2.51,2.51,0,0,1,.42-1.69,2.18,2.18,0,0,1,1.59-.44,1.24,1.24,0,0,1,1.52,1.53v4.52h1v-4.43a2.14,2.14,0,0,0-2.4-2.45,2.44,2.44,0,0,0-2.33,1.14h0q-.37-1.14-2.09-1.14a2.24,2.24,0,0,0-2.21,1.14l0,0,0-1h-1Zm-6.76-4a2.69,2.69,0,0,1,.36-1.69,2.2,2.2,0,0,1,1.56-.39,2.49,2.49,0,0,1,1.56.33,2,2,0,0,1,.36,1.43v.32Zm3.85,2.14c0,.46-.12.77-.36.91a3.67,3.67,0,0,1-1.56.21q-1.26,0-1.61-.44a3.83,3.83,0,0,1-.34-2H133v-.53a3.84,3.84,0,0,0-.58-2.54,3.52,3.52,0,0,0-2.45-.6,3,3,0,0,0-2.3.7,4.43,4.43,0,0,0-.59,2.72,4.78,4.78,0,0,0,.58,2.88,3.23,3.23,0,0,0,2.46.68,4.36,4.36,0,0,0,2.25-.42,1.64,1.64,0,0,0,.64-1.48v-.25h-1Zm-8-3.79a8.09,8.09,0,0,1,0,4.47q-.31.43-1.64.43t-1.63-.43a8.09,8.09,0,0,1,0-4.47c.21-.29.75-.43,1.63-.43s1.43.14,1.64.43m-4.07-.6a7.45,7.45,0,0,0,0,5.67,4.87,4.87,0,0,0,4.87,0,7.46,7.46,0,0,0,0-5.67,4.86,4.86,0,0,0-4.87,0m-3.43,6.22h1V153.6h-1Zm0-8.56h1V150.7h-1Zm-3,7.54a2.23,2.23,0,0,1-1.44.3q-1.34,0-1.71-.46A4,4,0,0,1,110,157a4.87,4.87,0,0,1,.32-2.23q.32-.5,1.44-.5a3.09,3.09,0,0,1,1.55.26,1.19,1.19,0,0,1,.39,1.05v.18h1a2.25,2.25,0,0,0-.6-1.83,3.76,3.76,0,0,0-2.25-.49,2.88,2.88,0,0,0-2.28.72A4.47,4.47,0,0,0,109,157a4.67,4.67,0,0,0,.59,2.84,3.17,3.17,0,0,0,2.42.69q2.85,0,2.85-2.17v-.37h-1a2.17,2.17,0,0,1-.3,1.42m-7.59-4.6a8.09,8.09,0,0,1,0,4.47q-.31.43-1.64.43t-1.63-.43a8.11,8.11,0,0,1,0-4.47c.21-.29.75-.43,1.63-.43s1.43.14,1.64.43m-4.07-.6a7.46,7.46,0,0,0,0,5.67,4.87,4.87,0,0,0,4.87,0,7.45,7.45,0,0,0,0-5.67,4.86,4.86,0,0,0-4.87,0m-2.33,1q0-1.62-2.69-1.62a4.45,4.45,0,0,0-2.24.38A1.72,1.72,0,0,0,94,155.4a1.64,1.64,0,0,0,.71,1.59,7.41,7.41,0,0,0,3,.38c.65,0,1,.36,1,1.07a1.06,1.06,0,0,1-.39,1,3.62,3.62,0,0,1-1.61.23,2.71,2.71,0,0,1-1.34-.22,1,1,0,0,1-.34-.89v-.32H94v.37a1.63,1.63,0,0,0,.63,1.48,4.56,4.56,0,0,0,2.29.4,4.16,4.16,0,0,0,2.23-.42,1.79,1.79,0,0,0,.61-1.57,1.72,1.72,0,0,0-1.84-1.93l-1,0-.8,0a1,1,0,0,1-1-1.09c0-.46.1-.75.3-.87a3.3,3.3,0,0,1,1.4-.18,3.76,3.76,0,0,1,1.48.17c.19.11.29.41.29.88h1ZM78,160.37h1v-3.85q0-2.21,2-2.21,1.5,0,1.5,1.31v4.74h1v-3.92a2.5,2.5,0,0,1,.42-1.69,2.18,2.18,0,0,1,1.59-.44,1.71,1.71,0,0,1,1.21.32,1.73,1.73,0,0,1,.32,1.21v4.52h1v-4.43a2.14,2.14,0,0,0-2.4-2.45,2.44,2.44,0,0,0-2.33,1.14h0q-.37-1.14-2.09-1.14A2.24,2.24,0,0,0,79,154.64l0,0,0-1H78Zm-6.76-4a2.69,2.69,0,0,1,.36-1.69,2.2,2.2,0,0,1,1.56-.39,2.49,2.49,0,0,1,1.56.33,2,2,0,0,1,.36,1.43v.32Zm3.85,2.14c0,.46-.12.77-.36.91a3.66,3.66,0,0,1-1.56.21q-1.26,0-1.61-.44a3.83,3.83,0,0,1-.34-2h4.88v-.53a3.84,3.84,0,0,0-.58-2.54,3.52,3.52,0,0,0-2.45-.6,3,3,0,0,0-2.3.7,4.43,4.43,0,0,0-.59,2.72,4.77,4.77,0,0,0,.58,2.88,3.23,3.23,0,0,0,2.46.68,4.36,4.36,0,0,0,2.25-.42,1.63,1.63,0,0,0,.64-1.48v-.25h-1Zm-8.18-3.73a3.61,3.61,0,0,1,.38,2,4.59,4.59,0,0,1-.37,2.29,1.79,1.79,0,0,1-1.56.55q-1.17,0-1.52-.5A4.41,4.41,0,0,1,63.5,157a4.32,4.32,0,0,1,.35-2.16q.35-.49,1.52-.49a1.93,1.93,0,0,1,1.56.48m.4-1.2,0,.91h0a2.19,2.19,0,0,0-2.18-1,2.57,2.57,0,0,0-2.14.75,4.8,4.8,0,0,0-.58,2.78,4.67,4.67,0,0,0,.57,2.71,2.47,2.47,0,0,0,2.07.74q1.83,0,2.21-.94h0v1.36a1.74,1.74,0,0,1-.39,1.33,2.44,2.44,0,0,1-1.52.34,2.49,2.49,0,0,1-1.41-.26,1.45,1.45,0,0,1-.32-1.13h-1a2.23,2.23,0,0,0,.55,1.75,3.34,3.34,0,0,0,2.07.47,3.66,3.66,0,0,0,2.34-.55,2.6,2.6,0,0,0,.64-2V153.6Zm-8.2,3.7a1.22,1.22,0,0,1,.41,1.08q0,1.27-2.1,1.28a2.44,2.44,0,0,1-1.38-.27,1.34,1.34,0,0,1-.34-1.09,1.22,1.22,0,0,1,.34-1,3,3,0,0,1,1.49-.24,3.08,3.08,0,0,1,1.58.28m-3.19-2c0-.69.61-1,1.83-1a2,2,0,0,1,1.4.34,2.39,2.39,0,0,1,.32,1.51v.82h0q-.35-.7-2.14-.7a3.39,3.39,0,0,0-2.08.47,2.09,2.09,0,0,0-.57,1.69q0,2.06,2.57,2.06a2.62,2.62,0,0,0,2.3-.84h0l-.08.73h1V155.9a2.42,2.42,0,0,0-.6-1.91,3.74,3.74,0,0,0-2.29-.5,3.72,3.72,0,0,0-2.09.41A1.91,1.91,0,0,0,55,155.5h1c0-.1,0-.17,0-.2m-7.44-.88h3.71l-4.05,5v.94h5.22v-.82h-4l4-5v-1H48.5Zm-2.84,6h1V153.6h-1Zm0-8.56h1V150.7h-1Zm-3.49,3a3.31,3.31,0,0,1,.41,2,4.71,4.71,0,0,1-.37,2.33c-.25.36-.78.54-1.59.54a1.68,1.68,0,0,1-1.49-.54,4.57,4.57,0,0,1-.36-2.24,3.92,3.92,0,0,1,.36-2.05,1.71,1.71,0,0,1,1.46-.51,2,2,0,0,1,1.58.51m.42-4.13v3.75h0q-.35-1-2.21-1a2.47,2.47,0,0,0-2.06.74,4.5,4.5,0,0,0-.57,2.65,5,5,0,0,0,.57,2.83,2.52,2.52,0,0,0,2.13.76q1.71,0,2.18-1h0l0,.88h1V150.7Zm-12.49,9.68h1V156.3q0-2,2.09-2a2,2,0,0,1,1.28.3,1.57,1.57,0,0,1,.33,1.17v4.58h1V156a2.78,2.78,0,0,0-.51-2,2.83,2.83,0,0,0-2-.51q-1.8,0-2.25,1l0,0,0-.92h-1Zm-6.76-4a2.69,2.69,0,0,1,.36-1.69,2.2,2.2,0,0,1,1.56-.39,2.49,2.49,0,0,1,1.56.33,2,2,0,0,1,.36,1.43v.32Zm3.85,2.14q0,.7-.36.91a3.66,3.66,0,0,1-1.56.21q-1.26,0-1.61-.44a3.81,3.81,0,0,1-.34-2h4.88v-.53a3.85,3.85,0,0,0-.58-2.54,3.52,3.52,0,0,0-2.45-.6,3,3,0,0,0-2.3.7,4.43,4.43,0,0,0-.59,2.72,4.78,4.78,0,0,0,.58,2.88,3.24,3.24,0,0,0,2.46.68,4.35,4.35,0,0,0,2.25-.42,1.64,1.64,0,0,0,.64-1.48v-.25h-1Zm-10.73,1.84h1v-4.06q0-2.05,1.66-2,1.13,0,1.13,1c0,.06,0,.18,0,.36l0,.17h1v-.47a1.68,1.68,0,0,0-1.87-1.93,2.1,2.1,0,0,0-1.94,1l0,0,.1-.78h-1Zm-3.39-5.54a4.6,4.6,0,0,1,.35,2.24,4,4,0,0,1-.36,2.08,1.73,1.73,0,0,1-1.48.5,1.88,1.88,0,0,1-1.57-.52A3.81,3.81,0,0,1,9.61,157a4.39,4.39,0,0,1,.36-2.21q.36-.51,1.55-.51t1.53.51m-4.45,8.45h1v-3.71h0a2.37,2.37,0,0,0,2.21.9,2.44,2.44,0,0,0,2-.74,4.49,4.49,0,0,0,.57-2.65,5,5,0,0,0-.57-2.82,2.44,2.44,0,0,0-2.08-.77,2.28,2.28,0,0,0-2.22,1l0,0,.05-.86h-1Zm-3.52-6a1.22,1.22,0,0,1,.41,1.08q0,1.27-2.1,1.28A2.44,2.44,0,0,1,2,159.38a1.34,1.34,0,0,1-.34-1.09,1.21,1.21,0,0,1,.34-1A3,3,0,0,1,3.5,157a3.08,3.08,0,0,1,1.58.28m-3.19-2c0-.69.61-1,1.83-1a2,2,0,0,1,1.4.34,2.4,2.4,0,0,1,.32,1.51v.82h0q-.35-.7-2.14-.7a3.4,3.4,0,0,0-2.08.47,2.09,2.09,0,0,0-.57,1.69q0,2.06,2.57,2.06a2.63,2.63,0,0,0,2.3-.84h0l-.08.73h1V155.9a2.41,2.41,0,0,0-.6-1.91,3.74,3.74,0,0,0-2.29-.5,3.72,3.72,0,0,0-2.09.41,1.91,1.91,0,0,0-.54,1.59h1c0-.1,0-.17,0-.2"/></g></g></svg>